<?xml version="1.0" encoding="UTF-8" standalone="no"?>
<!DOCTYPE svg PUBLIC "-//W3C//DTD SVG 1.1//EN"
 "http://www.w3.org/Graphics/SVG/1.1/DTD/svg11.dtd">
<!-- Generated by graphviz version 5.0.0 (20220707.1540)
 -->
<!-- Title: StorageDiagram Pages: 1 -->
<svg width="2742pt" height="455pt"
 viewBox="0.00 0.00 2742.40 455.40" xmlns="http://www.w3.org/2000/svg" xmlns:xlink="http://www.w3.org/1999/xlink">
<g id="graph0" class="graph" transform="scale(1 1) rotate(0) translate(4 451.4)">
<title>StorageDiagram</title>
<polygon fill="white" stroke="transparent" points="-4,4 -4,-451.4 2738.4,-451.4 2738.4,4 -4,4"/>
<!-- 8 -->
<g id="node1" class="node">
<title>8</title>
<polygon fill="#f2f2f2" stroke="black" points="0,-0.5 0,-446.9 670.5,-446.9 670.5,-0.5 0,-0.5"/>
<text text-anchor="middle" x="335.25" y="-430.3" font-family="Courier New" font-size="14.00">BoredApeYachtClub &lt;&lt;Contract&gt;&gt;</text>
<polyline fill="none" stroke="black" points="0,-422.1 670.5,-422.1 "/>
<text text-anchor="middle" x="24.8" y="-405.5" font-family="Courier New" font-size="14.00">slot</text>
<polyline fill="none" stroke="black" points="0,-397.3 49.61,-397.3 "/>
<text text-anchor="middle" x="24.8" y="-380.7" font-family="Courier New" font-size="14.00">0</text>
<polyline fill="none" stroke="black" points="0,-372.5 49.61,-372.5 "/>
<text text-anchor="middle" x="24.8" y="-355.9" font-family="Courier New" font-size="14.00">1</text>
<polyline fill="none" stroke="black" points="0,-347.7 49.61,-347.7 "/>
<text text-anchor="middle" x="24.8" y="-331.1" font-family="Courier New" font-size="14.00">2&#45;3</text>
<polyline fill="none" stroke="black" points="0,-322.9 49.61,-322.9 "/>
<text text-anchor="middle" x="24.8" y="-306.3" font-family="Courier New" font-size="14.00">4</text>
<polyline fill="none" stroke="black" points="0,-298.1 49.61,-298.1 "/>
<text text-anchor="middle" x="24.8" y="-281.5" font-family="Courier New" font-size="14.00">5</text>
<polyline fill="none" stroke="black" points="0,-273.3 49.61,-273.3 "/>
<text text-anchor="middle" x="24.8" y="-256.7" font-family="Courier New" font-size="14.00">6</text>
<polyline fill="none" stroke="black" points="0,-248.5 49.61,-248.5 "/>
<text text-anchor="middle" x="24.8" y="-231.9" font-family="Courier New" font-size="14.00">7</text>
<polyline fill="none" stroke="black" points="0,-223.7 49.61,-223.7 "/>
<text text-anchor="middle" x="24.8" y="-207.1" font-family="Courier New" font-size="14.00">8</text>
<polyline fill="none" stroke="black" points="0,-198.9 49.61,-198.9 "/>
<text text-anchor="middle" x="24.8" y="-182.3" font-family="Courier New" font-size="14.00">9</text>
<polyline fill="none" stroke="black" points="0,-174.1 49.61,-174.1 "/>
<text text-anchor="middle" x="24.8" y="-157.5" font-family="Courier New" font-size="14.00">10</text>
<polyline fill="none" stroke="black" points="0,-149.3 49.61,-149.3 "/>
<text text-anchor="middle" x="24.8" y="-132.7" font-family="Courier New" font-size="14.00">11</text>
<polyline fill="none" stroke="black" points="0,-124.5 49.61,-124.5 "/>
<text text-anchor="middle" x="24.8" y="-107.9" font-family="Courier New" font-size="14.00">12</text>
<polyline fill="none" stroke="black" points="0,-99.7 49.61,-99.7 "/>
<text text-anchor="middle" x="24.8" y="-83.1" font-family="Courier New" font-size="14.00">13</text>
<polyline fill="none" stroke="black" points="0,-74.9 49.61,-74.9 "/>
<text text-anchor="middle" x="24.8" y="-58.3" font-family="Courier New" font-size="14.00">14</text>
<polyline fill="none" stroke="black" points="0,-50.1 49.61,-50.1 "/>
<text text-anchor="middle" x="24.8" y="-33.5" font-family="Courier New" font-size="14.00">15</text>
<polyline fill="none" stroke="black" points="0,-25.3 49.61,-25.3 "/>
<text text-anchor="middle" x="24.8" y="-8.7" font-family="Courier New" font-size="14.00">16</text>
<polyline fill="none" stroke="black" points="49.61,-0.5 49.61,-422.1 "/>
<text text-anchor="middle" x="360.05" y="-405.5" font-family="Courier New" font-size="14.00">type: &lt;inherited contract&gt;.variable (bytes)</text>
<polyline fill="none" stroke="black" points="49.61,-397.3 670.5,-397.3 "/>
<text text-anchor="middle" x="359.64" y="-380.7" font-family="Courier New" font-size="14.00">mapping(bytes4=&gt;bool): ERC165._supportedInterfaces (32)</text>
<polyline fill="none" stroke="black" points="49.61,-372.5 670.5,-372.5 "/>
<text text-anchor="middle" x="359.85" y="-355.9" font-family="Courier New" font-size="14.00">mapping(address=&gt;EnumerableSet.UintSet): ERC721._holderTokens (32)</text>
<polyline fill="none" stroke="black" points="49.61,-347.7 670.5,-347.7 "/>
<text text-anchor="middle" x="359.84" y="-331.1" font-family="Courier New" font-size="14.00">EnumerableMap.UintToAddressMap: ERC721._tokenOwners (64)</text>
<polyline fill="none" stroke="black" points="49.61,-322.9 670.5,-322.9 "/>
<text text-anchor="middle" x="359.94" y="-306.3" font-family="Courier New" font-size="14.00">mapping(uint256=&gt;address): ERC721._tokenApprovals (32)</text>
<polyline fill="none" stroke="black" points="49.61,-298.1 670.5,-298.1 "/>
<text text-anchor="middle" x="360.05" y="-281.5" font-family="Courier New" font-size="14.00">mapping(address=&gt;mapping(address=&gt;bool)): ERC721._operatorApprovals (32)</text>
<polyline fill="none" stroke="black" points="49.61,-273.3 670.5,-273.3 "/>
<text text-anchor="middle" x="359.62" y="-256.7" font-family="Courier New" font-size="14.00">string: ERC721._name (32)</text>
<polyline fill="none" stroke="black" points="49.61,-248.5 670.5,-248.5 "/>
<text text-anchor="middle" x="360.02" y="-231.9" font-family="Courier New" font-size="14.00">string: ERC721._symbol (32)</text>
<polyline fill="none" stroke="black" points="49.61,-223.7 670.5,-223.7 "/>
<text text-anchor="middle" x="359.74" y="-207.1" font-family="Courier New" font-size="14.00">mapping(uint256=&gt;string): ERC721._tokenURIs (32)</text>
<polyline fill="none" stroke="black" points="49.61,-198.9 670.5,-198.9 "/>
<text text-anchor="middle" x="359.72" y="-182.3" font-family="Courier New" font-size="14.00">string: ERC721._baseURI (32)</text>
<polyline fill="none" stroke="black" points="49.61,-174.1 670.5,-174.1 "/>
<text text-anchor="middle" x="179.32" y="-157.5" font-family="Courier New" font-size="14.00">unallocated (12)</text>
<polyline fill="none" stroke="black" points="309.03,-149.3 309.03,-174.1 "/>
<text text-anchor="middle" x="489.65" y="-157.5" font-family="Courier New" font-size="14.00">address: Ownable._owner (20)</text>
<polyline fill="none" stroke="black" points="49.61,-149.3 670.5,-149.3 "/>
<text text-anchor="middle" x="359.72" y="-132.7" font-family="Courier New" font-size="14.00">string: BAYC_PROVENANCE (32)</text>
<polyline fill="none" stroke="black" points="49.61,-124.5 670.5,-124.5 "/>
<text text-anchor="middle" x="360.03" y="-107.9" font-family="Courier New" font-size="14.00">uint256: startingIndexBlock (32)</text>
<polyline fill="none" stroke="black" points="49.61,-99.7 670.5,-99.7 "/>
<text text-anchor="middle" x="360.02" y="-83.1" font-family="Courier New" font-size="14.00">uint256: startingIndex (32)</text>
<polyline fill="none" stroke="black" points="49.61,-74.9 670.5,-74.9 "/>
<text text-anchor="middle" x="360.02" y="-58.3" font-family="Courier New" font-size="14.00">uint256: MAX_APES (32)</text>
<polyline fill="none" stroke="black" points="49.61,-50.1 670.5,-50.1 "/>
<text text-anchor="middle" x="191.82" y="-33.5" font-family="Courier New" font-size="14.00">unallocated (31)</text>
<polyline fill="none" stroke="black" points="334.03,-25.3 334.03,-50.1 "/>
<text text-anchor="middle" x="501.94" y="-33.5" font-family="Courier New" font-size="14.00">bool: saleIsActive (1)</text>
<polyline fill="none" stroke="black" points="49.61,-25.3 670.5,-25.3 "/>
<text text-anchor="middle" x="359.63" y="-8.7" font-family="Courier New" font-size="14.00">uint256: REVEAL_TIMESTAMP (32)</text>
</g>
<!-- 3 -->
<g id="node4" class="node">
<title>3</title>
<polygon fill="#f2f2f2" stroke="black" points="753.11,-369.5 753.11,-443.9 1020.35,-443.9 1020.35,-369.5 753.11,-369.5"/>
<text text-anchor="middle" x="886.73" y="-427.3" font-family="Courier New" font-size="14.00">UintSet &lt;&lt;Struct&gt;&gt;</text>
<polyline fill="none" stroke="black" points="753.11,-419.1 1020.35,-419.1 "/>
<text text-anchor="middle" x="786.32" y="-402.5" font-family="Courier New" font-size="14.00">offset</text>
<polyline fill="none" stroke="black" points="753.11,-394.3 819.52,-394.3 "/>
<text text-anchor="middle" x="786.32" y="-377.7" font-family="Courier New" font-size="14.00">0&#45;1</text>
<polyline fill="none" stroke="black" points="819.52,-369.5 819.52,-419.1 "/>
<text text-anchor="middle" x="919.94" y="-402.5" font-family="Courier New" font-size="14.00">type: variable (bytes)</text>
<polyline fill="none" stroke="black" points="819.52,-394.3 1020.35,-394.3 "/>
<text text-anchor="middle" x="919.73" y="-377.7" font-family="Courier New" font-size="14.00">Set: _inner (64)</text>
</g>
<!-- 8&#45;&gt;3 -->
<g id="edge1" class="edge">
<title>8:6&#45;&gt;3</title>
<path fill="none" stroke="black" d="M670.5,-359.7C695.91,-359.7 722.63,-362.86 748.26,-367.55"/>
<polygon fill="black" stroke="black" points="747.92,-371.05 758.4,-369.5 749.24,-364.18 747.92,-371.05"/>
</g>
<!-- 7 -->
<g id="node8" class="node">
<title>7</title>
<polygon fill="#f2f2f2" stroke="black" points="706.5,-264.5 706.5,-338.9 1066.96,-338.9 1066.96,-264.5 706.5,-264.5"/>
<text text-anchor="middle" x="886.73" y="-322.3" font-family="Courier New" font-size="14.00">EnumerableMap.UintToAddressMap &lt;&lt;Struct&gt;&gt;</text>
<polyline fill="none" stroke="black" points="706.5,-314.1 1066.96,-314.1 "/>
<text text-anchor="middle" x="735.31" y="-297.5" font-family="Courier New" font-size="14.00">slot</text>
<polyline fill="none" stroke="black" points="706.5,-289.3 764.11,-289.3 "/>
<text text-anchor="middle" x="735.31" y="-272.7" font-family="Courier New" font-size="14.00">2&#45;3</text>
<polyline fill="none" stroke="black" points="764.11,-264.5 764.11,-314.1 "/>
<text text-anchor="middle" x="915.23" y="-297.5" font-family="Courier New" font-size="14.00">type: variable (bytes)</text>
<polyline fill="none" stroke="black" points="764.11,-289.3 1066.35,-289.3 "/>
<text text-anchor="middle" x="915.23" y="-272.7" font-family="Courier New" font-size="14.00">Map: UintToAddressMap._inner (64)</text>
</g>
<!-- 8&#45;&gt;7 -->
<g id="edge2" class="edge">
<title>8:13&#45;&gt;7</title>
<path fill="none" stroke="black" d="M670.5,-335.7C678.93,-335.7 687.52,-335.44 696.19,-334.97"/>
<polygon fill="black" stroke="black" points="696.63,-338.45 706.38,-334.33 696.18,-331.47 696.63,-338.45"/>
</g>
<!-- 1 -->
<g id="node2" class="node">
<title>1</title>
<polygon fill="#f2f2f2" stroke="black" points="1709.05,-339.5 1709.05,-413.9 1976.29,-413.9 1976.29,-339.5 1709.05,-339.5"/>
<text text-anchor="middle" x="1842.67" y="-397.3" font-family="Courier New" font-size="14.00">bytes32[]: _values &lt;&lt;Array&gt;&gt;</text>
<polyline fill="none" stroke="black" points="1709.05,-389.1 1976.29,-389.1 "/>
<text text-anchor="middle" x="1742.25" y="-372.5" font-family="Courier New" font-size="14.00">offset</text>
<polyline fill="none" stroke="black" points="1709.05,-364.3 1775.46,-364.3 "/>
<text text-anchor="middle" x="1742.25" y="-347.7" font-family="Courier New" font-size="14.00">0</text>
<polyline fill="none" stroke="black" points="1775.46,-339.5 1775.46,-389.1 "/>
<text text-anchor="middle" x="1875.87" y="-372.5" font-family="Courier New" font-size="14.00">type: variable (bytes)</text>
<polyline fill="none" stroke="black" points="1775.46,-364.3 1976.29,-364.3 "/>
<text text-anchor="middle" x="1875.87" y="-347.7" font-family="Courier New" font-size="14.00">bytes32 (32)</text>
</g>
<!-- 2 -->
<g id="node3" class="node">
<title>2</title>
<polygon fill="#f2f2f2" stroke="black" points="1102.96,-339.1 1102.96,-438.3 1521.42,-438.3 1521.42,-339.1 1102.96,-339.1"/>
<text text-anchor="middle" x="1312.19" y="-421.7" font-family="Courier New" font-size="14.00">Set &lt;&lt;Struct&gt;&gt;</text>
<polyline fill="none" stroke="black" points="1102.96,-413.5 1521.42,-413.5 "/>
<text text-anchor="middle" x="1136.16" y="-396.9" font-family="Courier New" font-size="14.00">offset</text>
<polyline fill="none" stroke="black" points="1102.96,-388.7 1169.37,-388.7 "/>
<text text-anchor="middle" x="1136.16" y="-372.1" font-family="Courier New" font-size="14.00">0</text>
<polyline fill="none" stroke="black" points="1102.96,-363.9 1169.37,-363.9 "/>
<text text-anchor="middle" x="1136.16" y="-347.3" font-family="Courier New" font-size="14.00">1</text>
<polyline fill="none" stroke="black" points="1169.37,-339.1 1169.37,-413.5 "/>
<text text-anchor="middle" x="1345.4" y="-396.9" font-family="Courier New" font-size="14.00">type: variable (bytes)</text>
<polyline fill="none" stroke="black" points="1169.37,-388.7 1521.42,-388.7 "/>
<text text-anchor="middle" x="1344.98" y="-372.1" font-family="Courier New" font-size="14.00">bytes32[]: _values (32)</text>
<polyline fill="none" stroke="black" points="1169.37,-363.9 1521.42,-363.9 "/>
<text text-anchor="middle" x="1345.4" y="-347.3" font-family="Courier New" font-size="14.00">mapping(bytes32=&gt;uint256): _indexes (32)</text>
</g>
<!-- 2&#45;&gt;1 -->
<g id="edge3" class="edge">
<title>2:3&#45;&gt;1</title>
<path fill="none" stroke="black" d="M1521.19,-376.7C1579.2,-376.7 1643.12,-376.7 1698.5,-376.7"/>
<polygon fill="black" stroke="black" points="1698.74,-380.2 1708.74,-376.7 1698.74,-373.2 1698.74,-380.2"/>
</g>
<!-- 3&#45;&gt;2 -->
<g id="edge4" class="edge">
<title>3:5&#45;&gt;2</title>
<path fill="none" stroke="black" d="M1020.73,-381.7C1044.01,-381.7 1068.33,-381.93 1092.56,-382.3"/>
<polygon fill="black" stroke="black" points="1092.52,-385.8 1102.57,-382.46 1092.63,-378.8 1092.52,-385.8"/>
</g>
<!-- 4 -->
<g id="node5" class="node">
<title>4</title>
<polygon fill="#f2f2f2" stroke="black" points="2163.91,-167.7 2163.91,-283.7 2734.4,-283.7 2734.4,-167.7 2163.91,-167.7"/>
<text text-anchor="middle" x="2449.16" y="-267.1" font-family="Courier New" font-size="14.00">MapEntry &lt;&lt;Struct&gt;&gt;</text>
<text text-anchor="middle" x="2449.16" y="-250.3" font-family="Courier New" font-size="14.00">0x405787fa12a823e0f2b7631cc41b3ba8828b3321ca811111fa75cd3aa3bb5ace</text>
<polyline fill="none" stroke="black" points="2163.91,-242.1 2734.4,-242.1 "/>
<text text-anchor="middle" x="2272.62" y="-225.5" font-family="Courier New" font-size="14.00">offset</text>
<polyline fill="none" stroke="black" points="2163.91,-217.3 2381.32,-217.3 "/>
<text text-anchor="middle" x="2272.62" y="-200.7" font-family="Courier New" font-size="14.00">0</text>
<polyline fill="none" stroke="black" points="2163.91,-192.5 2381.32,-192.5 "/>
<text text-anchor="middle" x="2272.62" y="-175.9" font-family="Courier New" font-size="14.00">1</text>
<polyline fill="none" stroke="black" points="2381.32,-167.7 2381.32,-242.1 "/>
<text text-anchor="middle" x="2557.74" y="-225.5" font-family="Courier New" font-size="14.00">type: variable (bytes)</text>
<polyline fill="none" stroke="black" points="2381.32,-217.3 2734.15,-217.3 "/>
<text text-anchor="middle" x="2557.43" y="-200.7" font-family="Courier New" font-size="14.00">bytes32: _key (32)</text>
<polyline fill="none" stroke="black" points="2381.32,-192.5 2734.15,-192.5 "/>
<text text-anchor="middle" x="2557.33" y="-175.9" font-family="Courier New" font-size="14.00">bytes32: _value (32)</text>
</g>
<!-- 5 -->
<g id="node6" class="node">
<title>5</title>
<polygon fill="#f2f2f2" stroke="black" points="1557.42,-213.1 1557.42,-304.3 2127.91,-304.3 2127.91,-213.1 1557.42,-213.1"/>
<text text-anchor="middle" x="1842.67" y="-287.7" font-family="Courier New" font-size="14.00">MapEntry[]: _entries &lt;&lt;Array&gt;&gt;</text>
<text text-anchor="middle" x="1842.67" y="-270.9" font-family="Courier New" font-size="14.00">0x405787fa12a823e0f2b7631cc41b3ba8828b3321ca811111fa75cd3aa3bb5ace</text>
<polyline fill="none" stroke="black" points="1557.42,-262.7 2127.91,-262.7 "/>
<text text-anchor="middle" x="1666.13" y="-246.1" font-family="Courier New" font-size="14.00">offset</text>
<polyline fill="none" stroke="black" points="1557.42,-237.9 1774.83,-237.9 "/>
<text text-anchor="middle" x="1666.13" y="-221.3" font-family="Courier New" font-size="14.00">0&#45;1</text>
<polyline fill="none" stroke="black" points="1774.83,-213.1 1774.83,-262.7 "/>
<text text-anchor="middle" x="1951.25" y="-246.1" font-family="Courier New" font-size="14.00">type: variable (bytes)</text>
<polyline fill="none" stroke="black" points="1774.83,-237.9 2127.66,-237.9 "/>
<text text-anchor="middle" x="1950.94" y="-221.3" font-family="Courier New" font-size="14.00">MapEntry (64)</text>
</g>
<!-- 5&#45;&gt;4 -->
<g id="edge5" class="edge">
<title>5:9&#45;&gt;4</title>
<path fill="none" stroke="black" d="M2127.67,-225.7C2136.17,-225.7 2144.79,-225.7 2153.5,-225.7"/>
<polygon fill="black" stroke="black" points="2153.75,-229.2 2163.75,-225.7 2153.75,-222.2 2153.75,-229.2"/>
</g>
<!-- 6 -->
<g id="node7" class="node">
<title>6</title>
<polygon fill="#f2f2f2" stroke="black" points="1111.36,-221.1 1111.36,-320.3 1513.02,-320.3 1513.02,-221.1 1111.36,-221.1"/>
<text text-anchor="middle" x="1312.19" y="-303.7" font-family="Courier New" font-size="14.00">Map &lt;&lt;Struct&gt;&gt;</text>
<polyline fill="none" stroke="black" points="1111.36,-295.5 1513.02,-295.5 "/>
<text text-anchor="middle" x="1136.16" y="-278.9" font-family="Courier New" font-size="14.00">slot</text>
<polyline fill="none" stroke="black" points="1111.36,-270.7 1160.97,-270.7 "/>
<text text-anchor="middle" x="1136.16" y="-254.1" font-family="Courier New" font-size="14.00">2</text>
<polyline fill="none" stroke="black" points="1111.36,-245.9 1160.97,-245.9 "/>
<text text-anchor="middle" x="1136.16" y="-229.3" font-family="Courier New" font-size="14.00">3</text>
<polyline fill="none" stroke="black" points="1160.97,-221.1 1160.97,-295.5 "/>
<text text-anchor="middle" x="1336.99" y="-278.9" font-family="Courier New" font-size="14.00">type: variable (bytes)</text>
<polyline fill="none" stroke="black" points="1160.97,-270.7 1513.02,-270.7 "/>
<text text-anchor="middle" x="1336.98" y="-254.1" font-family="Courier New" font-size="14.00">MapEntry[]: _entries (32)</text>
<polyline fill="none" stroke="black" points="1160.97,-245.9 1513.02,-245.9 "/>
<text text-anchor="middle" x="1336.99" y="-229.3" font-family="Courier New" font-size="14.00">mapping(bytes32=&gt;uint256): _indexes (32)</text>
</g>
<!-- 6&#45;&gt;5 -->
<g id="edge6" class="edge">
<title>6:10&#45;&gt;5</title>
<path fill="none" stroke="black" d="M1514.19,-258.7C1524.96,-258.7 1535.94,-258.7 1547.02,-258.7"/>
<polygon fill="black" stroke="black" points="1547.23,-262.2 1557.23,-258.7 1547.23,-255.2 1547.23,-262.2"/>
</g>
<!-- 7&#45;&gt;6 -->
<g id="edge7" class="edge">
<title>7:12&#45;&gt;6</title>
<path fill="none" stroke="black" d="M1066.96,-276.7C1078.11,-276.7 1089.55,-276.64 1101.1,-276.52"/>
<polygon fill="black" stroke="black" points="1101.31,-280.02 1111.27,-276.41 1101.24,-273.02 1101.31,-280.02"/>
</g>
</g>
</svg>
