<?xml version="1.0" encoding="UTF-8" standalone="no"?>
<!DOCTYPE svg PUBLIC "-//W3C//DTD SVG 1.1//EN"
 "http://www.w3.org/Graphics/SVG/1.1/DTD/svg11.dtd">
<!-- Generated by graphviz version 5.0.0 (20220707.1540)
 -->
<!-- Title: StorageDiagram Pages: 1 -->
<svg width="939pt" height="545pt"
 viewBox="0.00 0.00 938.93 545.20" xmlns="http://www.w3.org/2000/svg" xmlns:xlink="http://www.w3.org/1999/xlink">
<g id="graph0" class="graph" transform="scale(1 1) rotate(0) translate(4 541.2)">
<title>StorageDiagram</title>
<polygon fill="white" stroke="transparent" points="-4,4 -4,-541.2 934.93,-541.2 934.93,4 -4,4"/>
<!-- 3 -->
<g id="node1" class="node">
<title>3</title>
<polygon fill="#f2f2f2" stroke="black" points="0,-115.1 0,-536.7 460.47,-536.7 460.47,-115.1 0,-115.1"/>
<text text-anchor="middle" x="230.23" y="-520.1" font-family="Courier New" font-size="14.00">CryptoPunksMarket &lt;&lt;Contract&gt;&gt;</text>
<polyline fill="none" stroke="black" points="0,-511.9 460.47,-511.9 "/>
<text text-anchor="middle" x="24.8" y="-495.3" font-family="Courier New" font-size="14.00">slot</text>
<polyline fill="none" stroke="black" points="0,-487.1 49.61,-487.1 "/>
<text text-anchor="middle" x="24.8" y="-470.5" font-family="Courier New" font-size="14.00">0</text>
<polyline fill="none" stroke="black" points="0,-462.3 49.61,-462.3 "/>
<text text-anchor="middle" x="24.8" y="-445.7" font-family="Courier New" font-size="14.00">1</text>
<polyline fill="none" stroke="black" points="0,-437.5 49.61,-437.5 "/>
<text text-anchor="middle" x="24.8" y="-420.9" font-family="Courier New" font-size="14.00">2</text>
<polyline fill="none" stroke="black" points="0,-412.7 49.61,-412.7 "/>
<text text-anchor="middle" x="24.8" y="-396.1" font-family="Courier New" font-size="14.00">3</text>
<polyline fill="none" stroke="black" points="0,-387.9 49.61,-387.9 "/>
<text text-anchor="middle" x="24.8" y="-371.3" font-family="Courier New" font-size="14.00">4</text>
<polyline fill="none" stroke="black" points="0,-363.1 49.61,-363.1 "/>
<text text-anchor="middle" x="24.8" y="-346.5" font-family="Courier New" font-size="14.00">5</text>
<polyline fill="none" stroke="black" points="0,-338.3 49.61,-338.3 "/>
<text text-anchor="middle" x="24.8" y="-321.7" font-family="Courier New" font-size="14.00">6</text>
<polyline fill="none" stroke="black" points="0,-313.5 49.61,-313.5 "/>
<text text-anchor="middle" x="24.8" y="-296.9" font-family="Courier New" font-size="14.00">7</text>
<polyline fill="none" stroke="black" points="0,-288.7 49.61,-288.7 "/>
<text text-anchor="middle" x="24.8" y="-272.1" font-family="Courier New" font-size="14.00">8</text>
<polyline fill="none" stroke="black" points="0,-263.9 49.61,-263.9 "/>
<text text-anchor="middle" x="24.8" y="-247.3" font-family="Courier New" font-size="14.00">9</text>
<polyline fill="none" stroke="black" points="0,-239.1 49.61,-239.1 "/>
<text text-anchor="middle" x="24.8" y="-222.5" font-family="Courier New" font-size="14.00">10</text>
<polyline fill="none" stroke="black" points="0,-214.3 49.61,-214.3 "/>
<text text-anchor="middle" x="24.8" y="-197.7" font-family="Courier New" font-size="14.00">11</text>
<polyline fill="none" stroke="black" points="0,-189.5 49.61,-189.5 "/>
<text text-anchor="middle" x="24.8" y="-172.9" font-family="Courier New" font-size="14.00">12</text>
<polyline fill="none" stroke="black" points="0,-164.7 49.61,-164.7 "/>
<text text-anchor="middle" x="24.8" y="-148.1" font-family="Courier New" font-size="14.00">13</text>
<polyline fill="none" stroke="black" points="0,-139.9 49.61,-139.9 "/>
<text text-anchor="middle" x="24.8" y="-123.3" font-family="Courier New" font-size="14.00">14</text>
<polyline fill="none" stroke="black" points="49.61,-115.1 49.61,-511.9 "/>
<text text-anchor="middle" x="255.04" y="-495.3" font-family="Courier New" font-size="14.00">type: &lt;inherited contract&gt;.variable (bytes)</text>
<polyline fill="none" stroke="black" points="49.61,-487.1 460.47,-487.1 "/>
<text text-anchor="middle" x="255.02" y="-470.5" font-family="Courier New" font-size="14.00">string: imageHash (32)</text>
<polyline fill="none" stroke="black" points="49.61,-462.3 460.47,-462.3 "/>
<text text-anchor="middle" x="145.82" y="-445.7" font-family="Courier New" font-size="14.00">unallocated (12)</text>
<polyline fill="none" stroke="black" points="242.03,-437.5 242.03,-462.3 "/>
<text text-anchor="middle" x="350.84" y="-445.7" font-family="Courier New" font-size="14.00">address: owner (20)</text>
<polyline fill="none" stroke="black" points="49.61,-437.5 460.47,-437.5 "/>
<text text-anchor="middle" x="254.82" y="-420.9" font-family="Courier New" font-size="14.00">string: standard (32)</text>
<polyline fill="none" stroke="black" points="49.61,-412.7 460.47,-412.7 "/>
<text text-anchor="middle" x="255.02" y="-396.1" font-family="Courier New" font-size="14.00">string: name (32)</text>
<polyline fill="none" stroke="black" points="49.61,-387.9 460.47,-387.9 "/>
<text text-anchor="middle" x="254.92" y="-371.3" font-family="Courier New" font-size="14.00">string: symbol (32)</text>
<polyline fill="none" stroke="black" points="49.61,-363.1 460.47,-363.1 "/>
<text text-anchor="middle" x="145.82" y="-346.5" font-family="Courier New" font-size="14.00">unallocated (31)</text>
<polyline fill="none" stroke="black" points="242.03,-338.3 242.03,-363.1 "/>
<text text-anchor="middle" x="350.84" y="-346.5" font-family="Courier New" font-size="14.00">uint8: decimals (1)</text>
<polyline fill="none" stroke="black" points="49.61,-338.3 460.47,-338.3 "/>
<text text-anchor="middle" x="254.62" y="-321.7" font-family="Courier New" font-size="14.00">uint256: totalSupply (32)</text>
<polyline fill="none" stroke="black" points="49.61,-313.5 460.47,-313.5 "/>
<text text-anchor="middle" x="255.03" y="-296.9" font-family="Courier New" font-size="14.00">uint: nextPunkIndexToAssign (32)</text>
<polyline fill="none" stroke="black" points="49.61,-288.7 460.47,-288.7 "/>
<text text-anchor="middle" x="131.32" y="-272.1" font-family="Courier New" font-size="14.00">unallocated (31)</text>
<polyline fill="none" stroke="black" points="213.03,-263.9 213.03,-288.7 "/>
<text text-anchor="middle" x="336.75" y="-272.1" font-family="Courier New" font-size="14.00">bool: allPunksAssigned (1)</text>
<polyline fill="none" stroke="black" points="49.61,-263.9 460.47,-263.9 "/>
<text text-anchor="middle" x="254.73" y="-247.3" font-family="Courier New" font-size="14.00">uint: punksRemainingToAssign (32)</text>
<polyline fill="none" stroke="black" points="49.61,-239.1 460.47,-239.1 "/>
<text text-anchor="middle" x="255.04" y="-222.5" font-family="Courier New" font-size="14.00">mapping(uint=&gt;address): punkIndexToAddress (32)</text>
<polyline fill="none" stroke="black" points="49.61,-214.3 460.47,-214.3 "/>
<text text-anchor="middle" x="254.83" y="-197.7" font-family="Courier New" font-size="14.00">mapping(address=&gt;uint256): balanceOf (32)</text>
<polyline fill="none" stroke="black" points="49.61,-189.5 460.47,-189.5 "/>
<text text-anchor="middle" x="254.84" y="-172.9" font-family="Courier New" font-size="14.00">mapping(uint=&gt;Offer): punksOfferedForSale (32)</text>
<polyline fill="none" stroke="black" points="49.61,-164.7 460.47,-164.7 "/>
<text text-anchor="middle" x="254.73" y="-148.1" font-family="Courier New" font-size="14.00">mapping(uint=&gt;Bid): punkBids (32)</text>
<polyline fill="none" stroke="black" points="49.61,-139.9 460.47,-139.9 "/>
<text text-anchor="middle" x="255.04" y="-123.3" font-family="Courier New" font-size="14.00">mapping(address=&gt;uint): pendingWithdrawals (32)</text>
</g>
<!-- 1 -->
<g id="node2" class="node">
<title>1</title>
<polygon fill="#f2f2f2" stroke="black" points="496.47,-168.1 496.47,-341.7 930.93,-341.7 930.93,-168.1 496.47,-168.1"/>
<text text-anchor="middle" x="713.7" y="-325.1" font-family="Courier New" font-size="14.00">Offer &lt;&lt;Struct&gt;&gt;</text>
<polyline fill="none" stroke="black" points="496.47,-316.9 930.93,-316.9 "/>
<text text-anchor="middle" x="529.67" y="-300.3" font-family="Courier New" font-size="14.00">offset</text>
<polyline fill="none" stroke="black" points="496.47,-292.1 562.88,-292.1 "/>
<text text-anchor="middle" x="529.67" y="-275.5" font-family="Courier New" font-size="14.00">0</text>
<polyline fill="none" stroke="black" points="496.47,-267.3 562.88,-267.3 "/>
<text text-anchor="middle" x="529.67" y="-250.7" font-family="Courier New" font-size="14.00">1</text>
<polyline fill="none" stroke="black" points="496.47,-242.5 562.88,-242.5 "/>
<text text-anchor="middle" x="529.67" y="-225.9" font-family="Courier New" font-size="14.00">2</text>
<polyline fill="none" stroke="black" points="496.47,-217.7 562.88,-217.7 "/>
<text text-anchor="middle" x="529.67" y="-201.1" font-family="Courier New" font-size="14.00">3</text>
<polyline fill="none" stroke="black" points="496.47,-192.9 562.88,-192.9 "/>
<text text-anchor="middle" x="529.67" y="-176.3" font-family="Courier New" font-size="14.00">4</text>
<polyline fill="none" stroke="black" points="562.88,-168.1 562.88,-316.9 "/>
<text text-anchor="middle" x="746.91" y="-300.3" font-family="Courier New" font-size="14.00">type: variable (bytes)</text>
<polyline fill="none" stroke="black" points="562.88,-292.1 930.93,-292.1 "/>
<text text-anchor="middle" x="648.59" y="-275.5" font-family="Courier New" font-size="14.00">unallocated (31)</text>
<polyline fill="none" stroke="black" points="734.3,-267.3 734.3,-292.1 "/>
<text text-anchor="middle" x="832.61" y="-275.5" font-family="Courier New" font-size="14.00">bool: isForSale (1)</text>
<polyline fill="none" stroke="black" points="562.88,-267.3 930.93,-267.3 "/>
<text text-anchor="middle" x="746.89" y="-250.7" font-family="Courier New" font-size="14.00">uint: punkIndex (32)</text>
<polyline fill="none" stroke="black" points="562.88,-242.5 930.93,-242.5 "/>
<text text-anchor="middle" x="646.09" y="-225.9" font-family="Courier New" font-size="14.00">unallocated (12)</text>
<polyline fill="none" stroke="black" points="729.3,-217.7 729.3,-242.5 "/>
<text text-anchor="middle" x="829.81" y="-225.9" font-family="Courier New" font-size="14.00">address: seller (20)</text>
<polyline fill="none" stroke="black" points="562.88,-217.7 930.93,-217.7 "/>
<text text-anchor="middle" x="746.69" y="-201.1" font-family="Courier New" font-size="14.00">uint: minValue (32)</text>
<polyline fill="none" stroke="black" points="562.88,-192.9 930.93,-192.9 "/>
<text text-anchor="middle" x="638.09" y="-176.3" font-family="Courier New" font-size="14.00">unallocated (12)</text>
<polyline fill="none" stroke="black" points="713.3,-168.1 713.3,-192.9 "/>
<text text-anchor="middle" x="822.12" y="-176.3" font-family="Courier New" font-size="14.00">address: onlySellTo (20)</text>
</g>
<!-- 3&#45;&gt;1 -->
<g id="edge1" class="edge">
<title>3:18&#45;&gt;1</title>
<path fill="none" stroke="black" d="M460.47,-176.9C468.95,-176.9 477.53,-177.31 486.14,-178.06"/>
<polygon fill="black" stroke="black" points="485.95,-181.56 496.26,-179.11 486.67,-174.6 485.95,-181.56"/>
</g>
<!-- 2 -->
<g id="node3" class="node">
<title>2</title>
<polygon fill="#f2f2f2" stroke="black" points="513.27,-0.5 513.27,-149.3 914.13,-149.3 914.13,-0.5 513.27,-0.5"/>
<text text-anchor="middle" x="713.7" y="-132.7" font-family="Courier New" font-size="14.00">Bid &lt;&lt;Struct&gt;&gt;</text>
<polyline fill="none" stroke="black" points="513.27,-124.5 914.13,-124.5 "/>
<text text-anchor="middle" x="546.48" y="-107.9" font-family="Courier New" font-size="14.00">offset</text>
<polyline fill="none" stroke="black" points="513.27,-99.7 579.68,-99.7 "/>
<text text-anchor="middle" x="546.48" y="-83.1" font-family="Courier New" font-size="14.00">0</text>
<polyline fill="none" stroke="black" points="513.27,-74.9 579.68,-74.9 "/>
<text text-anchor="middle" x="546.48" y="-58.3" font-family="Courier New" font-size="14.00">1</text>
<polyline fill="none" stroke="black" points="513.27,-50.1 579.68,-50.1 "/>
<text text-anchor="middle" x="546.48" y="-33.5" font-family="Courier New" font-size="14.00">2</text>
<polyline fill="none" stroke="black" points="513.27,-25.3 579.68,-25.3 "/>
<text text-anchor="middle" x="546.48" y="-8.7" font-family="Courier New" font-size="14.00">3</text>
<polyline fill="none" stroke="black" points="579.68,-0.5 579.68,-124.5 "/>
<text text-anchor="middle" x="746.91" y="-107.9" font-family="Courier New" font-size="14.00">type: variable (bytes)</text>
<polyline fill="none" stroke="black" points="579.68,-99.7 914.13,-99.7 "/>
<text text-anchor="middle" x="662.89" y="-83.1" font-family="Courier New" font-size="14.00">unallocated (31)</text>
<polyline fill="none" stroke="black" points="746.1,-74.9 746.1,-99.7 "/>
<text text-anchor="middle" x="829.81" y="-83.1" font-family="Courier New" font-size="14.00">bool: hasBid (1)</text>
<polyline fill="none" stroke="black" points="579.68,-74.9 914.13,-74.9 "/>
<text text-anchor="middle" x="746.69" y="-58.3" font-family="Courier New" font-size="14.00">uint: punkIndex (32)</text>
<polyline fill="none" stroke="black" points="579.68,-50.1 914.13,-50.1 "/>
<text text-anchor="middle" x="654.89" y="-33.5" font-family="Courier New" font-size="14.00">unallocated (12)</text>
<polyline fill="none" stroke="black" points="730.1,-25.3 730.1,-50.1 "/>
<text text-anchor="middle" x="822.12" y="-33.5" font-family="Courier New" font-size="14.00">address: bidder (20)</text>
<polyline fill="none" stroke="black" points="579.68,-25.3 914.13,-25.3 "/>
<text text-anchor="middle" x="746.89" y="-8.7" font-family="Courier New" font-size="14.00">uint: value (32)</text>
</g>
<!-- 3&#45;&gt;2 -->
<g id="edge2" class="edge">
<title>3:23&#45;&gt;2</title>
<path fill="none" stroke="black" d="M460.47,-151.9C474.38,-151.9 488.54,-150.82 502.69,-148.9"/>
<polygon fill="black" stroke="black" points="503.62,-152.31 512.99,-147.37 502.59,-145.38 503.62,-152.31"/>
</g>
</g>
</svg>
